<svg width="70" height="70" viewBox="0 0 70 70" fill="none" xmlns="http://www.w3.org/2000/svg">
<path d="M34.9999 64.1667C31.0138 64.1667 27.2464 63.4011 23.6978 61.8698C20.1492 60.3386 17.0503 58.2483 14.401 55.599C11.7517 52.9497 9.66138 49.8507 8.13013 46.3021C6.59888 42.7535 5.83325 38.9861 5.83325 35C5.83325 30.9653 6.62318 27.1736 8.20304 23.625C9.7829 20.0764 11.9218 16.9896 14.6197 14.3646C17.3176 11.7396 20.4652 9.66147 24.0624 8.13022C27.6596 6.59897 31.4999 5.83334 35.5833 5.83334C39.4721 5.83334 43.1423 6.50175 46.5937 7.83855C50.0451 9.17536 53.0711 11.0226 55.6718 13.3802C58.2725 15.7379 60.3385 18.533 61.8697 21.7656C63.401 24.9983 64.1666 28.4861 64.1666 32.2292C64.1666 37.8195 62.4652 42.1094 59.0624 45.099C55.6596 48.0886 51.5277 49.5833 46.6666 49.5833H41.2708C40.8333 49.5833 40.5294 49.7049 40.3593 49.9479C40.1892 50.191 40.1041 50.4583 40.1041 50.75C40.1041 51.3333 40.4687 52.1719 41.1978 53.2656C41.927 54.3594 42.2916 55.6111 42.2916 57.0208C42.2916 59.4514 41.6232 61.25 40.2864 62.4167C38.9496 63.5833 37.1874 64.1667 34.9999 64.1667ZM18.9583 37.9167C20.2221 37.9167 21.2673 37.5035 22.0937 36.6771C22.9201 35.8507 23.3333 34.8056 23.3333 33.5417C23.3333 32.2778 22.9201 31.2326 22.0937 30.4063C21.2673 29.5799 20.2221 29.1667 18.9583 29.1667C17.6944 29.1667 16.6492 29.5799 15.8228 30.4063C14.9964 31.2326 14.5833 32.2778 14.5833 33.5417C14.5833 34.8056 14.9964 35.8507 15.8228 36.6771C16.6492 37.5035 17.6944 37.9167 18.9583 37.9167ZM27.7083 26.25C28.9721 26.25 30.0173 25.8368 30.8437 25.0104C31.6701 24.184 32.0833 23.1389 32.0833 21.875C32.0833 20.6111 31.6701 19.566 30.8437 18.7396C30.0173 17.9132 28.9721 17.5 27.7083 17.5C26.4444 17.5 25.3992 17.9132 24.5728 18.7396C23.7464 19.566 23.3333 20.6111 23.3333 21.875C23.3333 23.1389 23.7464 24.184 24.5728 25.0104C25.3992 25.8368 26.4444 26.25 27.7083 26.25ZM42.2916 26.25C43.5555 26.25 44.6006 25.8368 45.427 25.0104C46.2534 24.184 46.6666 23.1389 46.6666 21.875C46.6666 20.6111 46.2534 19.566 45.427 18.7396C44.6006 17.9132 43.5555 17.5 42.2916 17.5C41.0277 17.5 39.9826 17.9132 39.1562 18.7396C38.3298 19.566 37.9166 20.6111 37.9166 21.875C37.9166 23.1389 38.3298 24.184 39.1562 25.0104C39.9826 25.8368 41.0277 26.25 42.2916 26.25ZM51.0416 37.9167C52.3055 37.9167 53.3506 37.5035 54.177 36.6771C55.0034 35.8507 55.4166 34.8056 55.4166 33.5417C55.4166 32.2778 55.0034 31.2326 54.177 30.4063C53.3506 29.5799 52.3055 29.1667 51.0416 29.1667C49.7777 29.1667 48.7326 29.5799 47.9062 30.4063C47.0798 31.2326 46.6666 32.2778 46.6666 33.5417C46.6666 34.8056 47.0798 35.8507 47.9062 36.6771C48.7326 37.5035 49.7777 37.9167 51.0416 37.9167ZM34.9999 58.3333C35.4374 58.3333 35.7898 58.2118 36.0572 57.9688C36.3246 57.7257 36.4583 57.4097 36.4583 57.0208C36.4583 56.3403 36.0937 55.5382 35.3645 54.6146C34.6353 53.691 34.2708 52.3056 34.2708 50.4583C34.2708 48.4167 34.9756 46.7882 36.3853 45.5729C37.7951 44.3576 39.5208 43.75 41.5624 43.75H46.6666C49.8749 43.75 52.6214 42.8142 54.9062 40.9427C57.1909 39.0712 58.3333 36.1667 58.3333 32.2292C58.3333 26.3472 56.085 21.4497 51.5885 17.5365C47.0919 13.6233 41.7569 11.6667 35.5833 11.6667C28.9721 11.6667 23.3333 13.9271 18.6666 18.4479C13.9999 22.9688 11.6666 28.4861 11.6666 35C11.6666 41.4653 13.9392 46.9705 18.4843 51.5156C23.0294 56.0608 28.5346 58.3333 34.9999 58.3333Z" fill="#EB6DFF"/>
</svg>
