<svg width="70" height="70" viewBox="0 0 70 70" fill="none" xmlns="http://www.w3.org/2000/svg">
<path d="M29.1666 35C25.9583 35 23.2117 33.8576 20.927 31.5729C18.6423 29.2882 17.4999 26.5417 17.4999 23.3333C17.4999 20.125 18.6423 17.3785 20.927 15.0937C23.2117 12.809 25.9583 11.6667 29.1666 11.6667C32.3749 11.6667 35.1214 12.809 37.4062 15.0937C39.6909 17.3785 40.8333 20.125 40.8333 23.3333C40.8333 26.5417 39.6909 29.2882 37.4062 31.5729C35.1214 33.8576 32.3749 35 29.1666 35ZM5.83325 52.5V50.1667C5.83325 48.5625 6.24645 47.0555 7.07284 45.6458C7.89922 44.2361 9.04159 43.1667 10.4999 42.4375C13.3194 41.0278 16.236 39.9219 19.2499 39.1198C22.2638 38.3177 25.3506 37.9167 28.5103 37.9167C29.3367 37.9167 30.0294 38.2083 30.5885 38.7917C31.1475 39.375 31.427 40.0798 31.427 40.9062C31.427 41.7326 31.1475 42.4253 30.5885 42.9844C30.0294 43.5434 29.3367 43.8229 28.5103 43.8229C25.7881 43.8229 23.151 44.1632 20.5989 44.8437C18.0468 45.5243 15.5555 46.4722 13.1249 47.6875C12.6388 47.9305 12.2742 48.2708 12.0312 48.7083C11.7881 49.1458 11.6666 49.6319 11.6666 50.1667V52.5H28.5103C29.3367 52.5 30.0294 52.7795 30.5885 53.3385C31.1475 53.8976 31.427 54.5903 31.427 55.4167C31.427 56.243 31.1475 56.9358 30.5885 57.4948C30.0294 58.0538 29.3367 58.3333 28.5103 58.3333H11.6666C10.0624 58.3333 8.68915 57.7621 7.54679 56.6198C6.40443 55.4774 5.83325 54.1042 5.83325 52.5ZM46.2291 58.9167L45.7916 56.875C45.2083 56.6319 44.6614 56.3767 44.151 56.1094C43.6405 55.842 43.118 55.5139 42.5833 55.125L40.4687 55.7812C39.8367 55.9757 39.2169 55.9514 38.6093 55.7083C38.0017 55.4653 37.5277 55.0764 37.1874 54.5417L36.6041 53.5208C36.2638 52.9375 36.1423 52.3055 36.2395 51.625C36.3367 50.9444 36.6527 50.3854 37.1874 49.9479L38.7916 48.5625C38.6944 47.8819 38.6458 47.25 38.6458 46.6667C38.6458 46.0833 38.6944 45.4514 38.7916 44.7708L37.1874 43.3854C36.6527 42.9479 36.3367 42.401 36.2395 41.7448C36.1423 41.0885 36.2638 40.4687 36.6041 39.8854L37.2603 38.7917C37.6006 38.2569 38.0624 37.868 38.6458 37.625C39.2291 37.3819 39.8367 37.3576 40.4687 37.5521L42.5833 38.2083C43.118 37.8194 43.6405 37.4913 44.151 37.2239C44.6614 36.9566 45.2083 36.7014 45.7916 36.4583L46.2291 34.3437C46.3749 33.6632 46.703 33.1163 47.2135 32.7031C47.7239 32.2899 48.3194 32.0833 48.9999 32.0833H50.1666C50.8471 32.0833 51.4426 32.3021 51.953 32.7396C52.4635 33.1771 52.7916 33.7361 52.9374 34.4167L53.3749 36.4583C53.9583 36.7014 54.5051 36.9687 55.0155 37.2604C55.526 37.5521 56.0485 37.9167 56.5833 38.3542L58.552 37.6979C59.2326 37.4548 59.8888 37.4548 60.5208 37.6979C61.1527 37.941 61.6388 38.3542 61.9791 38.9375L62.5624 39.9583C62.9027 40.5417 63.0242 41.1736 62.927 41.8542C62.8298 42.5347 62.5138 43.0937 61.9791 43.5312L60.3749 44.9167C60.4721 45.5 60.5208 46.1076 60.5208 46.7396C60.5208 47.3715 60.4721 47.9792 60.3749 48.5625L61.9791 49.9479C62.5138 50.3854 62.8298 50.9323 62.927 51.5885C63.0242 52.2448 62.9027 52.8646 62.5624 53.4479L61.9062 54.5417C61.5659 55.0764 61.1041 55.4653 60.5208 55.7083C59.9374 55.9514 59.3298 55.9757 58.6978 55.7812L56.5833 55.125C56.0485 55.5139 55.526 55.842 55.0155 56.1094C54.5051 56.3767 53.9583 56.6319 53.3749 56.875L52.9374 58.9896C52.7916 59.6701 52.4635 60.217 51.953 60.6302C51.4426 61.0434 50.8471 61.25 50.1666 61.25H48.9999C48.3194 61.25 47.7239 61.0312 47.2135 60.5937C46.703 60.1562 46.3749 59.5972 46.2291 58.9167ZM49.5833 52.5C51.1874 52.5 52.5607 51.9288 53.703 50.7864C54.8454 49.6441 55.4166 48.2708 55.4166 46.6667C55.4166 45.0625 54.8454 43.6892 53.703 42.5469C52.5607 41.4045 51.1874 40.8333 49.5833 40.8333C47.9791 40.8333 46.6058 41.4045 45.4635 42.5469C44.3211 43.6892 43.7499 45.0625 43.7499 46.6667C43.7499 48.2708 44.3211 49.6441 45.4635 50.7864C46.6058 51.9288 47.9791 52.5 49.5833 52.5ZM29.1666 29.1667C30.7708 29.1667 32.144 28.5955 33.2864 27.4531C34.4287 26.3108 34.9999 24.9375 34.9999 23.3333C34.9999 21.7292 34.4287 20.3559 33.2864 19.2135C32.144 18.0712 30.7708 17.5 29.1666 17.5C27.5624 17.5 26.1892 18.0712 25.0468 19.2135C23.9044 20.3559 23.3333 21.7292 23.3333 23.3333C23.3333 24.9375 23.9044 26.3108 25.0468 27.4531C26.1892 28.5955 27.5624 29.1667 29.1666 29.1667Z" fill="#EB6DFF"/>
</svg>
