<svg width="37" height="47" viewBox="0 0 37 47" fill="none" xmlns="http://www.w3.org/2000/svg">
<path d="M18.1473 24.6L20.3596 26.5C20.6161 26.7667 20.6802 26.9667 20.552 27.1L18.5321 30.8C18.4038 30.9333 18.1794 31 17.8588 31L15.2617 29.9C14.4281 30.5 13.8189 30.8667 13.4341 31L12.9532 33.7C12.6967 34.0333 12.5043 34.2 12.3761 34.2H8.24003C8.11178 34.2 7.99957 34.15 7.90338 34.05C7.80719 33.95 7.79116 33.8333 7.85529 33.7L7.47054 31C7.02166 30.8667 6.38042 30.5 5.54679 29.9L2.75737 30.8C2.56499 30.9333 2.34055 30.8333 2.08406 30.5L0.0641248 26.9C0.0641248 26.6333 0.12825 26.3667 0.256499 26.1L2.4688 24.4V22.2L0.256499 20.5C0 20.2333 -0.0641248 20.0333 0.0641248 19.9L2.08406 16.2C2.2123 16.0667 2.43674 16 2.75737 16L5.35442 17.1C6.18804 16.5 6.82929 16.1333 7.27816 16L7.66291 13.3C7.91941 12.9667 8.11178 12.8 8.24003 12.8H12.3761C12.7608 12.8 12.9532 12.9667 12.9532 13.3L13.4341 16C13.8189 16.1333 14.4281 16.5 15.2617 17.1L17.8588 16.2C18.0511 16.0667 18.2756 16.1667 18.5321 16.5L20.552 20.1C20.552 20.3667 20.4879 20.5667 20.3596 20.7L18.1473 22.4V24.6ZM10.3081 27.8C11.4302 27.8 12.3921 27.3833 13.1937 26.55C13.9952 25.7167 14.396 24.7 14.396 23.5C14.396 22.3 13.9952 21.2833 13.1937 20.45C12.3921 19.6167 11.4302 19.2 10.3081 19.2C9.18587 19.2 8.224 19.6167 7.42244 20.45C6.62088 21.2833 6.2201 22.3 6.2201 23.5C6.2201 24.7 6.62088 25.7167 7.42244 26.55C8.224 27.3833 9.18587 27.8 10.3081 27.8ZM32.864 0C34.0182 0 34.9961 0.416667 35.7977 1.25C36.5992 2.08333 37 3.1 37 4.3V42.7C37 43.9 36.5992 44.9167 35.7977 45.75C34.9961 46.5833 34.0182 47 32.864 47H12.3761C11.2218 47 10.2439 46.5833 9.44237 45.75C8.64081 44.9167 8.24003 43.9 8.24003 42.7V36.3H12.3761V40.6H32.864V6.4H12.3761V10.7H8.24003V4.3C8.24003 3.1 8.64081 2.08333 9.44237 1.25C10.2439 0.416667 11.2218 0 12.3761 0H32.864Z" fill="white"/>
</svg>
