<svg width="62" height="13" viewBox="0 0 62 13" fill="none" xmlns="http://www.w3.org/2000/svg">
<path d="M5.72021 1.33594V12H3.53027V1.33594H5.72021ZM9.00146 1.33594V3.05713H0.300293V1.33594H9.00146ZM8.51074 8.11816V7.96436C8.51074 7.3833 8.59375 6.84863 8.75977 6.36035C8.92578 5.86719 9.16748 5.43994 9.48486 5.07861C9.80225 4.71729 10.1929 4.43652 10.6567 4.23633C11.1206 4.03125 11.6528 3.92871 12.2534 3.92871C12.854 3.92871 13.3887 4.03125 13.8574 4.23633C14.3262 4.43652 14.7192 4.71729 15.0366 5.07861C15.3589 5.43994 15.603 5.86719 15.769 6.36035C15.9351 6.84863 16.0181 7.3833 16.0181 7.96436V8.11816C16.0181 8.69434 15.9351 9.229 15.769 9.72217C15.603 10.2104 15.3589 10.6377 15.0366 11.0039C14.7192 11.3652 14.3286 11.646 13.8647 11.8462C13.4009 12.0464 12.8687 12.1465 12.2681 12.1465C11.6675 12.1465 11.1328 12.0464 10.6641 11.8462C10.2002 11.646 9.80713 11.3652 9.48486 11.0039C9.16748 10.6377 8.92578 10.2104 8.75977 9.72217C8.59375 9.229 8.51074 8.69434 8.51074 8.11816ZM10.6201 7.96436V8.11816C10.6201 8.4502 10.6494 8.76025 10.708 9.04834C10.7666 9.33643 10.8594 9.59033 10.9863 9.81006C11.1182 10.0249 11.2891 10.1934 11.499 10.3154C11.709 10.4375 11.9653 10.4985 12.2681 10.4985C12.561 10.4985 12.8125 10.4375 13.0225 10.3154C13.2324 10.1934 13.4009 10.0249 13.5278 9.81006C13.6548 9.59033 13.7476 9.33643 13.8062 9.04834C13.8696 8.76025 13.9014 8.4502 13.9014 8.11816V7.96436C13.9014 7.64209 13.8696 7.33936 13.8062 7.05615C13.7476 6.76807 13.6523 6.51416 13.5205 6.29443C13.3936 6.06982 13.2251 5.89404 13.0151 5.76709C12.8052 5.64014 12.5513 5.57666 12.2534 5.57666C11.9556 5.57666 11.7017 5.64014 11.4917 5.76709C11.2866 5.89404 11.1182 6.06982 10.9863 6.29443C10.8594 6.51416 10.7666 6.76807 10.708 7.05615C10.6494 7.33936 10.6201 7.64209 10.6201 7.96436ZM19.4238 0.742676V12H17.3145V0.742676H19.4238ZM24.4189 4.0752L20.9766 8.00098L19.1309 9.86865L18.3618 8.34521L19.8267 6.48486L21.8848 4.0752H24.4189ZM22.229 12L19.8853 8.33789L21.3428 7.06348L24.6606 12H22.229ZM29.6118 8.19873H26.8945V6.48486H29.6118C30.0317 6.48486 30.3735 6.4165 30.6372 6.27979C30.9009 6.13818 31.0938 5.94287 31.2158 5.69385C31.3379 5.44482 31.3989 5.16406 31.3989 4.85156C31.3989 4.53418 31.3379 4.23877 31.2158 3.96533C31.0938 3.69189 30.9009 3.47217 30.6372 3.30615C30.3735 3.14014 30.0317 3.05713 29.6118 3.05713H27.6562V12H25.459V1.33594H29.6118C30.4468 1.33594 31.1621 1.4873 31.7578 1.79004C32.3584 2.08789 32.8174 2.50049 33.1348 3.02783C33.4521 3.55518 33.6108 4.1582 33.6108 4.83691C33.6108 5.52539 33.4521 6.12109 33.1348 6.62402C32.8174 7.12695 32.3584 7.51514 31.7578 7.78857C31.1621 8.06201 30.4468 8.19873 29.6118 8.19873ZM39.1846 10.2129V6.68262C39.1846 6.42871 39.1431 6.21143 39.0601 6.03076C38.9771 5.84521 38.8477 5.70117 38.6719 5.59863C38.501 5.49609 38.2788 5.44482 38.0054 5.44482C37.771 5.44482 37.5684 5.48633 37.3975 5.56934C37.2266 5.64746 37.0947 5.76221 37.002 5.91357C36.9092 6.06006 36.8628 6.2334 36.8628 6.43359H34.7534C34.7534 6.09668 34.8315 5.77686 34.9878 5.47412C35.144 5.17139 35.3711 4.90527 35.6689 4.67578C35.9668 4.44141 36.3208 4.2583 36.731 4.12646C37.146 3.99463 37.6099 3.92871 38.1226 3.92871C38.7378 3.92871 39.2847 4.03125 39.7632 4.23633C40.2417 4.44141 40.6177 4.74902 40.8911 5.15918C41.1694 5.56934 41.3086 6.08203 41.3086 6.69727V10.0884C41.3086 10.5229 41.3354 10.8794 41.3892 11.1577C41.4429 11.4312 41.521 11.6704 41.6235 11.8755V12H39.4922C39.3896 11.7852 39.3115 11.5166 39.2578 11.1943C39.209 10.8672 39.1846 10.54 39.1846 10.2129ZM39.4629 7.17334L39.4775 8.36719H38.2983C38.02 8.36719 37.7783 8.39893 37.5732 8.4624C37.3682 8.52588 37.1997 8.61621 37.0679 8.7334C36.936 8.8457 36.8384 8.97754 36.7749 9.12891C36.7163 9.28027 36.687 9.44629 36.687 9.62695C36.687 9.80762 36.7285 9.97119 36.8115 10.1177C36.8945 10.2593 37.0142 10.3716 37.1704 10.4546C37.3267 10.5327 37.5098 10.5718 37.7197 10.5718C38.0371 10.5718 38.313 10.5083 38.5474 10.3813C38.7817 10.2544 38.9624 10.0981 39.0894 9.9126C39.2212 9.72705 39.2896 9.55127 39.2944 9.38525L39.8511 10.2788C39.7729 10.479 39.6655 10.6865 39.5288 10.9014C39.397 11.1162 39.2285 11.3188 39.0234 11.5093C38.8184 11.6948 38.5718 11.8486 38.2837 11.9707C37.9956 12.0879 37.6538 12.1465 37.2583 12.1465C36.7554 12.1465 36.2988 12.0464 35.8887 11.8462C35.4834 11.6411 35.1611 11.3604 34.9219 11.0039C34.6875 10.6426 34.5703 10.2324 34.5703 9.77344C34.5703 9.3584 34.6484 8.98975 34.8047 8.66748C34.9609 8.34521 35.1904 8.07422 35.4932 7.85449C35.8008 7.62988 36.1841 7.46143 36.6431 7.34912C37.1021 7.23193 37.6343 7.17334 38.2397 7.17334H39.4629ZM45 5.76709V12H42.8906V4.0752H44.8682L45 5.76709ZM44.6924 7.75928H44.1211C44.1211 7.17334 44.1968 6.646 44.3481 6.17725C44.4995 5.70361 44.7119 5.30078 44.9854 4.96875C45.2588 4.63184 45.5835 4.37549 45.9595 4.19971C46.3403 4.01904 46.7651 3.92871 47.2339 3.92871C47.605 3.92871 47.9443 3.98242 48.252 4.08984C48.5596 4.19727 48.8232 4.36816 49.043 4.60254C49.2676 4.83691 49.4385 5.14697 49.5557 5.53271C49.6777 5.91846 49.7388 6.38965 49.7388 6.94629V12H47.6147V6.93896C47.6147 6.5874 47.5659 6.31396 47.4683 6.11865C47.3706 5.92334 47.2266 5.78662 47.0361 5.7085C46.8506 5.62549 46.6211 5.58398 46.3477 5.58398C46.0645 5.58398 45.8179 5.64014 45.6079 5.75244C45.4028 5.86475 45.2319 6.021 45.0952 6.22119C44.9634 6.4165 44.8633 6.646 44.7949 6.90967C44.7266 7.17334 44.6924 7.45654 44.6924 7.75928ZM54.9902 12.1465C54.375 12.1465 53.8232 12.0488 53.335 11.8535C52.8467 11.6533 52.4316 11.3774 52.0898 11.0259C51.7529 10.6743 51.4941 10.2666 51.3135 9.80273C51.1328 9.33398 51.0425 8.83594 51.0425 8.30859V8.01562C51.0425 7.41504 51.1279 6.86572 51.2988 6.36768C51.4697 5.86963 51.7139 5.4375 52.0312 5.07129C52.3535 4.70508 52.7441 4.42432 53.2031 4.229C53.6621 4.02881 54.1797 3.92871 54.7559 3.92871C55.3174 3.92871 55.8154 4.02148 56.25 4.20703C56.6846 4.39258 57.0483 4.65625 57.3413 4.99805C57.6392 5.33984 57.8638 5.75 58.0151 6.22852C58.1665 6.70215 58.2422 7.22949 58.2422 7.81055V8.68945H51.9434V7.2832H56.1694V7.12207C56.1694 6.8291 56.1157 6.56787 56.0083 6.33838C55.9058 6.104 55.7495 5.91846 55.5396 5.78174C55.3296 5.64502 55.061 5.57666 54.7339 5.57666C54.4556 5.57666 54.2163 5.6377 54.0161 5.75977C53.8159 5.88184 53.6523 6.05273 53.5254 6.27246C53.4033 6.49219 53.3105 6.75098 53.2471 7.04883C53.1885 7.3418 53.1592 7.66406 53.1592 8.01562V8.30859C53.1592 8.62598 53.2031 8.91895 53.291 9.1875C53.3838 9.45605 53.5132 9.68799 53.6792 9.8833C53.8501 10.0786 54.0552 10.23 54.2944 10.3374C54.5386 10.4448 54.8145 10.4985 55.1221 10.4985C55.5029 10.4985 55.8569 10.4253 56.1841 10.2788C56.5161 10.1274 56.8018 9.90039 57.041 9.59766L58.0664 10.7109C57.9004 10.9502 57.6733 11.1797 57.3853 11.3994C57.1021 11.6191 56.7603 11.7998 56.3599 11.9414C55.9595 12.0781 55.5029 12.1465 54.9902 12.1465ZM61.6699 0.75V12H59.5532V0.75H61.6699Z" fill="white"/>
</svg>
