<svg width="70" height="70" viewBox="0 0 70 70" fill="none" xmlns="http://www.w3.org/2000/svg">
<path d="M13.1249 32.0833C11.861 32.0833 10.8159 31.6701 9.9895 30.8438C9.16311 30.0174 8.74992 28.9722 8.74992 27.7083C8.74992 26.4444 9.16311 25.3993 9.9895 24.5729C10.8159 23.7465 11.861 23.3333 13.1249 23.3333C14.3888 23.3333 15.4339 23.7465 16.2603 24.5729C17.0867 25.3993 17.4999 26.4444 17.4999 27.7083C17.4999 28.9722 17.0867 30.0174 16.2603 30.8438C15.4339 31.6701 14.3888 32.0833 13.1249 32.0833ZM17.4999 58.3333H40.8333V43.75H35.7291C32.2777 43.75 29.3489 42.5469 26.9426 40.1406C24.5364 37.7344 23.3333 34.8056 23.3333 31.3542C23.3333 28.7778 24.026 26.4809 25.4114 24.4635C26.7968 22.4462 28.5833 20.9514 30.7708 19.9792C31.3055 16.8194 32.776 14.158 35.1822 11.9948C37.5885 9.8316 40.4444 8.75 43.7499 8.75C47.0555 8.75 49.9114 9.8316 52.3176 11.9948C54.7239 14.158 56.1944 16.8194 56.7291 19.9792C58.9166 20.9514 60.703 22.4462 62.0885 24.4635C63.4739 26.4809 64.1666 28.7778 64.1666 31.3542C64.1666 34.8056 62.9635 37.7344 60.5572 40.1406C58.151 42.5469 55.2221 43.75 51.7708 43.75H46.6666V58.3333H58.3333C59.1596 58.3333 59.8523 58.6129 60.4114 59.1719C60.9704 59.7309 61.2499 60.4236 61.2499 61.25C61.2499 62.0764 60.9704 62.7691 60.4114 63.3281C59.8523 63.8872 59.1596 64.1667 58.3333 64.1667H11.6666C10.8402 64.1667 10.1475 63.8872 9.58846 63.3281C9.02943 62.7691 8.74992 62.0764 8.74992 61.25V49.5833C8.2152 49.0486 7.5954 48.6233 6.89054 48.3073C6.18568 47.9913 5.83325 47.4444 5.83325 46.6667V37.9167C5.83325 37.0903 6.11277 36.3976 6.67179 35.8385C7.23082 35.2795 7.92353 35 8.74992 35H17.4999C18.3263 35 19.019 35.2795 19.578 35.8385C20.1371 36.3976 20.4166 37.0903 20.4166 37.9167V46.6667C20.4166 47.4444 20.0642 47.9913 19.3593 48.3073C18.6544 48.6233 18.0346 49.0486 17.4999 49.5833V58.3333ZM35.7291 37.9167H51.7708C53.618 37.9167 55.1735 37.2847 56.4374 36.0208C57.7013 34.7569 58.3333 33.2014 58.3333 31.3542C58.3333 30.0417 57.9808 28.8507 57.276 27.7813C56.5711 26.7118 55.611 25.9097 54.3958 25.375L51.3333 24.0625L50.8958 20.8542C50.6041 19.0556 49.7898 17.5608 48.453 16.3698C47.1162 15.1788 45.5485 14.5833 43.7499 14.5833C41.9513 14.5833 40.3836 15.1788 39.0468 16.3698C37.71 17.5608 36.8958 19.0556 36.6041 20.8542L36.1666 24.0625L33.1041 25.375C31.8888 25.9097 30.9287 26.7118 30.2239 27.7813C29.519 28.8507 29.1666 30.0417 29.1666 31.3542C29.1666 33.2014 29.7985 34.7569 31.0624 36.0208C32.3263 37.2847 33.8819 37.9167 35.7291 37.9167Z" fill="#EB6DFF"/>
</svg>
