<svg width="224" height="25" viewBox="0 0 224 25" fill="none" xmlns="http://www.w3.org/2000/svg">
<path d="M112.413 7.69469C110.408 7.69469 109.878 8.92598 109.9 10.3993V11.8541H112.532V13.666H109.9V23.1314H107.8V13.6594H105.627V11.8475H107.8V10.6889C107.8 7.7423 109.033 5.71484 112.051 5.71484H113.258V7.69866L112.413 7.69469Z" fill="white"/>
<path d="M112.765 17.4747C112.765 13.9038 115.446 11.5576 118.657 11.5576C121.868 11.5576 124.574 13.8998 124.574 17.4747C124.574 21.0495 121.869 23.4089 118.657 23.4089C115.444 23.4089 112.765 21.0482 112.765 17.4747ZM122.472 17.4747C122.472 15.1563 120.733 13.5388 118.657 13.5388C116.604 13.5388 114.89 15.1563 114.89 17.4747C114.89 19.8169 116.61 21.4344 118.657 21.4344C120.733 21.4344 122.472 19.8169 122.472 17.4747Z" fill="white"/>
<path d="M133.625 11.9927L133.288 13.9765C132.775 13.7297 132.215 13.5979 131.645 13.5904C129.397 13.5904 128.506 16.0291 128.506 18.9996V23.1285H126.382V11.8473H128.506V14.4077C129.085 12.4239 130.172 11.5576 131.669 11.5576C132.467 11.5576 133.288 11.7705 133.625 11.9927Z" fill="white"/>
<path d="M152.749 18.44C152.749 20.8311 150.939 23.1244 147.896 23.1244H141.111V6.48682H147.365C150.117 6.48682 151.862 8.12942 151.862 10.7375C151.862 12.1857 151.333 13.659 149.76 14.262C151.711 14.6972 152.749 16.6294 152.749 18.44ZM147.34 8.52089H143.308V13.4222H147.408C148.905 13.4222 149.656 12.384 149.656 10.9597C149.656 9.53528 148.862 8.5156 147.34 8.5156V8.52089ZM147.437 21.1009C149.489 21.1009 150.553 19.7982 150.553 18.2522C150.553 16.755 149.586 15.3545 147.558 15.3545H143.308V21.1009H147.437Z" fill="white"/>
<path d="M162.918 11.8476H165.017V23.1249H162.917V21.3619C162.24 22.7877 160.431 23.4092 159.176 23.4092C156.349 23.4092 154.611 21.5259 154.635 18.3624V11.8423H156.735V18.3148C156.735 20.2219 157.872 21.4294 159.44 21.4294C161.009 21.4294 162.893 20.4878 162.918 18.049V11.8476Z" fill="white"/>
<path d="M166.706 19.8169H168.662C168.686 20.7824 169.531 21.5799 170.91 21.5799C172.335 21.5799 173.18 20.8789 173.18 19.9611C173.18 19.116 172.528 18.6822 171.635 18.4891L170.089 18.1267C168.206 17.6188 167.119 16.701 167.119 14.8904C167.119 13.0309 168.712 11.5576 170.983 11.5576C172.89 11.5576 174.87 12.572 174.87 14.8415H172.843C172.818 13.9726 171.925 13.3933 171.031 13.3933C169.945 13.3933 169.22 14.0929 169.22 14.9632C169.22 15.7355 169.945 16.1455 170.675 16.3148L172.341 16.7261C174.684 17.3054 175.288 18.7099 175.288 19.9862C175.288 22.0864 173.259 23.4142 170.924 23.4142C168.879 23.4089 166.803 22.1353 166.706 19.8169Z" fill="white"/>
<path d="M176.587 7.69452C176.587 6.90099 177.263 6.29395 178.06 6.29395C178.881 6.29395 179.557 6.89702 179.557 7.69452C179.557 8.49201 178.881 9.09509 178.06 9.09509C177.263 9.09509 176.587 8.49069 176.587 7.69452ZM177.022 23.1246V11.8473H179.122V23.1246H177.022Z" fill="white"/>
<path d="M191.969 16.6044V23.1245H189.868V16.7261C189.868 14.8414 188.709 13.6353 187.139 13.6353C185.57 13.6353 183.686 14.5769 183.686 17.0157V23.1245H181.585V11.8472H183.686V13.5665C184.362 12.1897 186.199 11.5615 187.429 11.5615C190.23 11.5576 191.997 13.4422 191.969 16.6044Z" fill="white"/>
<path d="M204.924 18.3925H195.748C196.061 20.3962 197.511 21.4344 199.442 21.4344C200.819 21.4344 202.075 20.8062 202.727 19.6714L204.537 20.3962C203.572 22.3522 201.543 23.4142 199.37 23.4142C196.158 23.4142 193.575 21.0244 193.575 17.4495C193.575 13.8747 196.158 11.5576 199.37 11.5576C202.583 11.5576 204.973 13.876 204.973 17.4495C204.973 17.7643 204.947 18.0778 204.924 18.3925ZM202.871 16.5806C202.607 14.6484 201.23 13.5388 199.37 13.5388C197.462 13.5388 196.11 14.5519 195.772 16.5806H202.871Z" fill="white"/>
<path d="M205.865 19.8169H207.821C207.845 20.7824 208.69 21.5799 210.07 21.5799C211.494 21.5799 212.339 20.8789 212.339 19.9611C212.339 19.116 211.687 18.6822 210.793 18.4891L209.248 18.1267C207.365 17.6188 206.278 16.701 206.278 14.8904C206.278 13.0309 207.865 11.5576 210.142 11.5576C212.049 11.5576 214.029 12.572 214.029 14.8415H212.001C211.977 13.9726 211.084 13.3933 210.19 13.3933C209.103 13.3933 208.379 14.0929 208.379 14.9632C208.379 15.7355 209.103 16.1455 209.834 16.3148L211.501 16.7261C213.843 17.3054 214.447 18.7099 214.447 19.9862C214.447 22.0864 212.418 23.4142 210.083 23.4142C208.038 23.4089 205.962 22.1353 205.865 19.8169Z" fill="white"/>
<path d="M215.425 19.8169H217.381C217.405 20.7824 218.25 21.5799 219.629 21.5799C221.053 21.5799 221.899 20.8789 221.899 19.9611C221.899 19.116 221.247 18.6822 220.354 18.4891L218.808 18.1267C216.924 17.6188 215.837 16.701 215.837 14.8904C215.837 13.0309 217.424 11.5576 219.702 11.5576C221.609 11.5576 223.589 12.572 223.589 14.8415H221.561C221.536 13.9726 220.643 13.3933 219.749 13.3933C218.664 13.3933 217.939 14.0929 217.939 14.9632C217.939 15.7355 218.664 16.1455 219.387 16.3148L221.053 16.7261C223.396 17.3054 224 18.7099 224 19.9862C224 22.0864 221.971 23.4142 219.636 23.4142C217.598 23.4089 215.521 22.1353 215.425 19.8169Z" fill="white"/>
<path d="M8.30511 9.5407V8.55805C6.67912 8.33592 5.02566 8.66701 3.61056 9.49809C2.19546 10.3292 1.10093 11.612 0.502929 13.1402C-0.0950686 14.6685 -0.161791 16.3534 0.313488 17.9242C0.788766 19.495 1.77843 20.8603 3.12339 21.8007L3.02155 21.6896C2.1051 20.6457 1.50449 19.3627 1.28986 17.9904C1.07522 16.618 1.25541 15.2129 1.80939 13.9391C2.36338 12.6653 3.26829 11.5753 4.41848 10.7965C5.56866 10.0177 6.91667 9.58214 8.30511 9.5407Z" fill="#25F4EE"/>
<path d="M8.47832 20.1873C9.34848 20.181 10.183 19.8407 10.8094 19.2367C11.4358 18.6327 11.8062 17.8111 11.8442 16.9418L11.8521 1.03291H14.7406L14.734 0.997198C14.6738 0.66821 14.6437 0.334437 14.644 0H10.6618V15.9393C10.6422 16.5042 10.4793 17.0549 10.1885 17.5396C9.89775 18.0243 9.4886 18.4273 8.99946 18.7106C8.51032 18.9939 7.95722 19.1483 7.39207 19.1593C6.82692 19.1703 6.26823 19.0375 5.76843 18.7735C6.07628 19.2065 6.48237 19.5604 6.95342 19.8062C7.42446 20.0519 7.94705 20.1825 8.47832 20.1873Z" fill="#25F4EE"/>
<path d="M20.1736 6.48047V5.53088C19.1016 5.53069 18.053 5.21718 17.1569 4.62891C17.9332 5.51766 18.982 6.21596 20.1736 6.48047Z" fill="#25F4EE"/>
<path d="M17.1569 4.62871C16.2788 3.62424 15.7952 2.33515 15.796 1.00098H14.7036C14.8467 1.73989 15.1378 2.44221 15.5594 3.06566C15.981 3.68911 16.5244 4.2208 17.1569 4.62871Z" fill="#FE2C55"/>
<path d="M7.31854 12.432C6.56464 12.4272 5.83113 12.6767 5.23656 13.1403C4.64199 13.6038 4.22108 14.2543 4.04187 14.9866C3.86265 15.7189 3.93559 16.4903 4.2489 17.176C4.56222 17.8617 5.09759 18.4218 5.76852 18.7657C5.35376 18.1982 5.12912 17.514 5.12674 16.8111C5.12436 16.1082 5.34437 15.4226 5.75528 14.8523C6.16619 14.282 6.74695 13.8563 7.41447 13.6361C8.08198 13.4159 8.80205 13.4124 9.47164 13.6263V9.56605C9.14474 9.52013 8.81512 9.49627 8.48502 9.49463C8.42683 9.49463 8.36996 9.49463 8.31177 9.49463H8.28532V12.5616C7.97199 12.4673 7.64564 12.4236 7.31854 12.432Z" fill="#FE2C55"/>
<path d="M20.1736 6.41309H20.1524L20.1432 9.47477C18.1588 9.47294 16.2254 8.84591 14.6176 7.68273V15.8111C14.611 17.1442 14.2408 18.4503 13.5469 19.5886C12.853 20.7269 11.8617 21.6543 10.6798 22.2709C9.4978 22.8876 8.17001 23.17 6.8394 23.0879C5.5088 23.0058 4.22581 22.5621 3.12866 21.8048C4.12924 22.8823 5.43132 23.6333 6.86506 23.9597C8.2988 24.2861 9.79763 24.1729 11.166 23.6347C12.5345 23.0966 13.7089 22.1585 14.5363 20.9429C15.3636 19.7273 15.8053 18.2906 15.8039 16.8202V8.72886C17.4163 9.88738 19.352 10.5097 21.3374 10.5077V6.53608C20.9463 6.53598 20.5562 6.49476 20.1736 6.41309Z" fill="#FE2C55"/>
<path d="M14.644 15.8068V7.72479C16.2562 8.88364 18.1921 9.50595 20.1775 9.50361V6.41282C19.004 6.16086 17.944 5.53478 17.1568 4.62871C16.5281 4.21968 15.9889 3.68724 15.5719 3.06366C15.155 2.44008 14.869 1.73835 14.7313 1.00098H11.8217V16.9403C11.7969 17.6362 11.555 18.3068 11.1299 18.8584C10.7048 19.4099 10.1179 19.8146 9.45124 20.0158C8.78462 20.217 8.07175 20.2047 7.41251 19.9804C6.75328 19.7562 6.18071 19.3313 5.77503 18.7654C5.11261 18.4188 4.58553 17.86 4.27809 17.1785C3.97065 16.497 3.90059 15.7321 4.07912 15.0061C4.25765 14.2801 4.67446 13.635 5.2629 13.1738C5.85134 12.7126 6.57742 12.462 7.32505 12.4621C7.65989 12.4631 7.99261 12.5153 8.31167 12.6169V9.49964C6.90149 9.53188 5.53073 9.97122 4.36454 10.7647C3.19835 11.5582 2.2865 12.672 1.73887 13.9719C1.19124 15.2718 1.03118 16.7023 1.278 18.0911C1.52481 19.4799 2.16796 20.7677 3.12995 21.7993C4.22607 22.5683 5.51227 23.0216 6.84834 23.1099C8.1844 23.1981 9.51905 22.9179 10.7068 22.2997C11.8945 21.6816 12.8898 20.7492 13.5841 19.6043C14.2783 18.4594 14.645 17.1458 14.644 15.8068Z" fill="white"/>
<path d="M25.2681 6.42627H37.7L36.5586 9.98127H33.3316V23.1273H29.3137V9.98127L25.272 9.9892L25.2681 6.42627Z" fill="white"/>
<path d="M58.054 6.42627H70.7689L69.6275 9.98127H66.1228V23.1273H62.0996V9.98127L58.0566 9.9892L58.054 6.42627Z" fill="white"/>
<path d="M38.4539 11.7378H42.4387L42.4347 23.1262H38.4777L38.4539 11.7378Z" fill="white"/>
<path d="M44.019 6.37842H47.9986V14.151L51.9398 10.2852H56.7009L51.711 15.127L57.3 23.1258H52.9079L49.1783 17.579L47.9986 18.7257V23.1258H44.019V6.37842Z" fill="white"/>
<path d="M86.1936 6.37842H90.1745V14.151L94.1183 10.2799H98.8689L93.8802 15.1218L99.468 23.1205H95.0798L91.3515 17.579L90.1718 18.7257V23.1258H86.1936V6.37842Z" fill="white"/>
<path d="M40.4455 10.4362C41.5528 10.4362 42.4505 9.53856 42.4505 8.43125C42.4505 7.32393 41.5528 6.42627 40.4455 6.42627C39.3382 6.42627 38.4406 7.32393 38.4406 8.43125C38.4406 9.53856 39.3382 10.4362 40.4455 10.4362Z" fill="white"/>
<path d="M70.2596 16.3081C70.2596 14.5934 70.9061 12.9416 72.0699 11.6824C73.2338 10.4232 74.8296 9.64895 76.5391 9.51418C76.3618 9.50096 76.1211 9.4917 75.9413 9.4917C74.1497 9.51665 72.44 10.2459 71.1819 11.5216C69.9238 12.7973 69.2185 14.517 69.2185 16.3087C69.2185 18.1005 69.9238 19.8202 71.1819 21.0959C72.44 22.3716 74.1497 23.1008 75.9413 23.1258C76.1211 23.1258 76.3618 23.1165 76.5391 23.102C74.8296 22.9672 73.2338 22.193 72.0699 20.9338C70.9061 19.6745 70.2596 18.0228 70.2596 16.3081Z" fill="#25F4EE"/>
<path d="M78.0904 9.49187C77.9092 9.49187 77.6672 9.50113 77.4886 9.51436C79.1979 9.64936 80.7935 10.4237 81.9571 11.6829C83.1208 12.9421 83.7671 14.5937 83.7671 16.3083C83.7671 18.0228 83.1208 19.6744 81.9571 20.9336C80.7935 22.1928 79.1979 22.9672 77.4886 23.1022C77.6672 23.1167 77.9092 23.126 78.0904 23.126C78.9936 23.1385 79.8903 22.9715 80.7285 22.6346C81.5666 22.2976 82.3294 21.7975 82.9725 21.1632C83.6157 20.529 84.1264 19.7732 84.475 18.9399C84.8236 18.1065 85.0031 17.2122 85.0031 16.3089C85.0031 15.4056 84.8236 14.5113 84.475 13.678C84.1264 12.8446 83.6157 12.0889 82.9725 11.4546C82.3294 10.8203 81.5666 10.3202 80.7285 9.98327C79.8903 9.64632 78.9936 9.47929 78.0904 9.49187Z" fill="#FE2C55"/>
<path d="M77.0139 9.4917C75.6653 9.49144 74.347 9.8911 73.2256 10.6401C72.1043 11.3892 71.2302 12.4539 70.714 13.6998C70.1979 14.9456 70.0627 16.3165 70.3258 17.6392C70.5888 18.9618 71.2381 20.1767 72.1917 21.1303C73.1452 22.0838 74.3602 22.7332 75.6828 22.9962C77.0054 23.2592 78.3763 23.1241 79.6222 22.6079C80.868 22.0917 81.9328 21.2177 82.6818 20.0963C83.4308 18.9749 83.8305 17.6566 83.8302 16.3081C83.8302 14.5003 83.1121 12.7665 81.8338 11.4882C80.5555 10.2099 78.8217 9.4917 77.0139 9.4917ZM77.0139 19.6224C76.3584 19.6224 75.7176 19.428 75.1725 19.0638C74.6275 18.6996 74.2027 18.182 73.9519 17.5764C73.701 16.9708 73.6354 16.3044 73.7633 15.6615C73.8911 15.0186 74.2068 14.428 74.6703 13.9645C75.1338 13.501 75.7244 13.1854 76.3673 13.0575C77.0102 12.9296 77.6766 12.9952 78.2822 13.2461C78.8878 13.4969 79.4054 13.9217 79.7696 14.4668C80.1338 15.0118 80.3282 15.6526 80.3282 16.3081C80.3282 17.1871 79.979 18.0301 79.3574 18.6516C78.7359 19.2732 77.8929 19.6224 77.0139 19.6224Z" fill="white"/>
</svg>
